<svg width="40" height="40" viewBox="0 0 40 40" fill="none" xmlns="http://www.w3.org/2000/svg">
<path d="M28.7422 26.6422L27.7929 21.1072C27.7929 21.1072 31.5196 17.4162 31.6876 17.2523C33.625 15.3629 33.2559 13.4992 30.975 12.842L24.8153 11.9474L22.1372 6.52008C20.8966 4.49331 19.1032 4.49331 17.8627 6.52008L15.1846 11.9474L9.02481 12.842C6.74396 13.4992 6.37486 15.3629 8.31225 17.2523C8.48108 17.4162 12.2086 21.1072 12.2086 21.1072L11.2593 26.6422C10.8852 29.4229 12.6075 30.5964 15.1846 29.2433C15.418 29.1191 20.0003 26.7663 20.0003 26.7663C20.0003 26.7663 24.5819 29.1191 24.8153 29.2433C27.3916 30.598 29.1154 29.4237 28.7414 26.6422H28.7422Z" stroke="#171717" stroke-width="1.6" stroke-linecap="round" stroke-linejoin="round"/>
<path d="M9.98975 34.9998H30.0125" stroke="#0EA5E9" stroke-width="1.6" stroke-linecap="round" stroke-linejoin="round"/>
</svg>
