<svg width="24" height="24" viewBox="0 0 24 24" fill="none" xmlns="http://www.w3.org/2000/svg">
<path d="M4.6748 3.32422C4.93465 3.19933 5.24362 3.23396 5.46875 3.41406L15.4688 11.4141C15.6467 11.5564 15.75 11.7722 15.75 12C15.75 12.2278 15.6467 12.4436 15.4688 12.5859L5.46875 20.5859C5.24362 20.766 4.93465 20.8007 4.6748 20.6758C4.41514 20.5508 4.25 20.2882 4.25 20V4C4.25 3.71181 4.41514 3.44917 4.6748 3.32422ZM18.25 19V5C18.25 4.58578 18.5858 4.25 19 4.25C19.4142 4.25 19.75 4.58578 19.75 5V19C19.75 19.4142 19.4142 19.75 19 19.75C18.5858 19.75 18.25 19.4142 18.25 19ZM5.75 18.4385L13.7988 12L5.75 5.56055V18.4385Z" fill="#525252"/>
</svg>
